<svg width="59" height="59" viewBox="0 0 59 59" fill="none" xmlns="http://www.w3.org/2000/svg">
<g filter="url(#filter0_i)">
<path d="M27.9474 0C12.5158 0 0 12.5134 0 27.9474C0 40.2954 8.00692 50.771 19.1137 54.4671C20.5087 54.7256 20.9605 53.8592 20.9605 53.1233V47.9204C13.1865 49.6112 11.5679 44.6226 11.5679 44.6226C10.2963 41.3924 8.4634 40.533 8.4634 40.533C5.92717 38.7979 8.6567 38.8352 8.6567 38.8352C11.4631 39.0308 12.9396 41.7161 12.9396 41.7161C15.4316 45.9874 19.477 44.7531 21.0723 44.0381C21.3215 42.2331 22.0458 40.9988 22.847 40.3024C16.6403 39.5921 10.1146 37.1956 10.1146 26.4894C10.1146 23.4362 11.2069 20.9442 12.9932 18.9879C12.7044 18.2822 11.7472 15.4386 13.2657 11.5912C13.2657 11.5912 15.6133 10.8412 20.9535 14.4558C23.1823 13.8363 25.5718 13.5265 27.9474 13.5149C30.3229 13.5265 32.7147 13.8363 34.9482 14.4558C40.2838 10.8412 42.6267 11.5912 42.6267 11.5912C44.1475 15.4409 43.1903 18.2846 42.9015 18.9879C44.6948 20.9442 45.7778 23.4385 45.7778 26.4894C45.7778 37.2236 39.2404 39.5874 33.0175 40.2791C34.0189 41.1455 34.9342 42.8456 34.9342 45.4541V53.1233C34.9342 53.8662 35.3814 54.7396 36.7997 54.4648C47.8971 50.7641 55.8947 40.2908 55.8947 27.9474C55.8947 12.5134 43.3813 0 27.9474 0Z" fill="white"/>
</g>
<defs>
<filter id="filter0_i" x="0" y="0" width="55.8947" height="58.5165" filterUnits="userSpaceOnUse" color-interpolation-filters="sRGB">
<feFlood flood-opacity="0" result="BackgroundImageFix"/>
<feBlend mode="normal" in="SourceGraphic" in2="BackgroundImageFix" result="shape"/>
<feColorMatrix in="SourceAlpha" type="matrix" values="0 0 0 0 0 0 0 0 0 0 0 0 0 0 0 0 0 0 127 0" result="hardAlpha"/>
<feOffset dy="4"/>
<feGaussianBlur stdDeviation="2"/>
<feComposite in2="hardAlpha" operator="arithmetic" k2="-1" k3="1"/>
<feColorMatrix type="matrix" values="0 0 0 0 0 0 0 0 0 0 0 0 0 0 0 0 0 0 0.25 0"/>
<feBlend mode="normal" in2="shape" result="effect1_innerShadow"/>
</filter>
</defs>
</svg>
